<svg width="75" height="75" viewBox="0 0 75 75" fill="none" xmlns="http://www.w3.org/2000/svg">
<rect x="11.0918" y="11.0915" width="52.8169" height="52.8169" stroke="#1D19FA" stroke-width="3.16901"/>
<path d="M52.989 27.7164H49.5649V31.1368H52.989V27.7164Z" fill="#1D19FA"/>
<path d="M42.7184 41.398V44.8185H39.2944H35.8703H32.4463V41.398V37.9776V34.5571H35.8703H39.2944H42.7184V37.9776V41.398Z" fill="#1D19FA"/>
<path d="M46.1408 27.7165V31.137H42.7167H39.2927H35.8686H32.4446H29.0205V27.7165V24.296H32.4446V27.7165H35.8686V24.296H39.2927V27.7165H42.7167V24.296H46.1408V27.7165Z" fill="#1D19FA"/>
<path d="M49.5666 31.1362H46.1426V34.5567H49.5666V31.1362Z" fill="#1D19FA"/>
<path d="M49.5666 44.8186H46.1426V48.2392H49.5666V44.8186Z" fill="#1D19FA"/>
<path d="M52.989 41.398V44.8185H49.5649V41.398V37.9776V34.5571H52.989V37.9776V41.398Z" fill="#1D19FA"/>
<path d="M46.1408 48.2395V51.6509H42.7167H39.2927H35.8686H32.4446H29.0205V48.2395H32.4446H35.8686H39.2927H42.7167H46.1408Z" fill="#1D19FA"/>
<path d="M29.0219 44.8186H25.6069V48.2392H29.0219V44.8186Z" fill="#1D19FA"/>
<path d="M25.6067 41.398V44.8185H22.1826V41.398V37.9776V34.5571H25.6067V37.9776V41.398Z" fill="#1D19FA"/>
<path d="M29.0219 31.1362H25.6069V34.5567H29.0219V31.1362Z" fill="#1D19FA"/>
<path d="M25.6067 27.7164H22.1826V31.1368H25.6067V27.7164Z" fill="#1D19FA"/>
<rect x="2.38095" y="2.38095" width="70.2381" height="70.2381" stroke="#1D19FA" stroke-width="4.7619"/>
</svg>
