<svg width="75" height="75" viewBox="0 0 75 75" fill="none" xmlns="http://www.w3.org/2000/svg">
<rect x="11.0913" y="11.0914" width="52.8169" height="52.8169" stroke="#1D19FA" stroke-width="3.16901"/>
<path d="M28.0856 22.8674H24.0835V26.8319H28.0856V22.8674Z" fill="#1D19FA"/>
<path d="M24.083 34.7612H20.0703V38.7258H24.083V34.7612Z" fill="#1D19FA"/>
<path d="M28.0856 46.6548H24.0835V50.6193H28.0856V46.6548Z" fill="#1D19FA"/>
<path d="M40.124 50.6193H36.1113V54.5733H40.124V50.6193Z" fill="#1D19FA"/>
<path d="M52.1606 46.6548H48.1479V50.6193H52.1606V46.6548Z" fill="#1D19FA"/>
<path d="M56.1743 34.7612H52.1616V38.7258H56.1743V34.7612Z" fill="#1D19FA"/>
<path d="M52.1606 22.8674H48.1479V26.8319H52.1606V22.8674Z" fill="#1D19FA"/>
<path d="M48.1494 38.7255V42.69H44.1367V46.6545H40.124H36.1113H32.0986V42.69H28.0859V38.7255V34.7609V30.7964H32.0986V26.8319H36.1113H40.124H44.1367V30.7964H48.1494V34.7609V38.7255Z" fill="#1D19FA"/>
<rect x="36.4238" y="19.0141" width="4.04386" height="3.9844" fill="#1D19FA"/>
<rect x="2.38095" y="2.38095" width="70.2381" height="70.2381" stroke="#1D19FA" stroke-width="4.7619"/>
</svg>
